<?xml version="1.0" standalone="no"?>
<!DOCTYPE svg PUBLIC "-//W3C//DTD SVG 20010904//EN"
 "http://www.w3.org/TR/2001/REC-SVG-20010904/DTD/svg10.dtd">
<svg version="1.0" xmlns="http://www.w3.org/2000/svg"
 width="572.000000pt" height="572.000000pt" viewBox="0 0 572.000000 572.000000"
 preserveAspectRatio="xMidYMid meet">
<metadata>
Created by potrace 1.14, written by Peter Selinger 2001-2017
</metadata>
<g transform="translate(0.000000,572.000000) scale(0.100000,-0.100000)"
fill="#000000" stroke="none">
<path d="M4145 3935 c-177 -39 -315 -129 -421 -275 -97 -135 -170 -345 -176
-513 -1 -30 -5 -37 -22 -38 -85 -3 -381 -9 -848 -15 -489 -6 -548 -5 -548 9 0
8 -23 61 -51 117 -99 198 -252 353 -438 445 -115 57 -150 69 -262 88 -416 70
-744 -175 -852 -637 -17 -74 -21 -123 -21 -266 0 -240 28 -396 103 -578 100
-242 323 -440 552 -488 322 -68 705 170 897 560 54 108 87 199 91 251 4 37 14
39 268 41 426 4 629 4 906 2 l268 -3 21 -70 c103 -346 395 -603 689 -607 199
-3 401 87 573 255 118 116 181 213 276 422 72 160 88 433 36 609 -102 343
-363 593 -716 686 -66 18 -254 21 -325 5z m381 -548 c66 -34 137 -137 160
-229 l6 -28 -103 -1 c-57 0 -198 -2 -312 -5 l-209 -5 33 62 c55 103 168 201
254 223 37 9 141 -1 171 -17z m-3030 -192 c104 -61 177 -244 175 -440 -3 -175
-100 -344 -240 -413 -74 -36 -174 -38 -238 -4 -80 42 -140 125 -178 244 -38
121 -23 282 37 403 100 199 300 294 444 210z m3134 -530 c0 -6 -24 -34 -52
-62 -105 -103 -239 -135 -343 -81 -27 15 -59 37 -70 49 -32 37 -65 82 -65 89
0 3 91 7 203 9 111 1 203 3 204 4 8 8 123 0 123 -8z"/>
</g>
</svg>
