<?xml version="1.0" standalone="no"?>
<!DOCTYPE svg PUBLIC "-//W3C//DTD SVG 20010904//EN"
 "http://www.w3.org/TR/2001/REC-SVG-20010904/DTD/svg10.dtd">
<svg version="1.0" xmlns="http://www.w3.org/2000/svg"
 width="512.000000pt" height="512.000000pt" viewBox="0 0 512.000000 512.000000"
 preserveAspectRatio="xMidYMid meet">
<metadata>
Created by potrace 1.14, written by Peter Selinger 2001-2017
</metadata>
<g transform="translate(0.000000,512.000000) scale(0.100000,-0.100000)"
fill="#000000" stroke="none">
<path d="M1055 3623 c-80 -17 -191 -58 -219 -82 -10 -9 -21 -16 -25 -15 -6 1
-49 -24 -67 -41 -7 -5 -24 -19 -40 -30 -56 -41 -161 -159 -211 -240 -76 -121
-148 -316 -165 -445 -2 -14 -6 -29 -9 -35 -7 -13 -3 -328 5 -375 26 -148 84
-309 155 -430 40 -67 117 -167 157 -205 131 -121 253 -192 385 -221 13 -3 38
-8 54 -12 87 -19 344 5 390 38 6 4 26 13 45 20 106 40 261 169 355 295 38 51
120 202 146 270 22 59 24 66 33 103 3 12 9 32 12 45 3 12 7 29 9 37 2 8 4 23
4 33 1 16 31 17 490 17 l489 0 7 -42 c12 -71 65 -229 101 -298 41 -80 77 -143
85 -150 3 -3 27 -31 53 -63 51 -62 92 -104 132 -133 15 -11 31 -24 38 -30 32
-30 196 -113 239 -120 4 -1 8 -2 10 -4 4 -3 40 -10 112 -20 346 -49 689 162
864 531 36 76 70 174 85 239 3 14 6 30 7 35 2 6 7 28 11 50 13 56 18 323 8
371 -4 21 -11 57 -14 79 -13 93 -53 219 -98 310 -37 73 -112 188 -153 234 -46
52 -129 131 -137 131 -3 0 -13 6 -20 13 -31 31 -182 109 -238 123 -8 2 -35 8
-60 15 -66 16 -226 18 -297 4 -210 -43 -357 -139 -522 -340 -37 -45 -117 -184
-123 -212 -1 -5 -11 -31 -24 -59 -12 -28 -33 -94 -46 -147 l-23 -97 -485 0
-485 0 -23 95 c-69 286 -235 525 -459 661 -64 39 -155 78 -205 88 -13 3 -34 8
-48 12 -50 13 -216 11 -285 -3z m261 -424 c21 -8 41 -16 44 -19 3 -3 17 -11
33 -17 15 -7 27 -17 27 -23 0 -5 5 -10 10 -10 44 0 187 -220 204 -314 3 -14 7
-29 9 -33 20 -33 30 -279 15 -373 -33 -211 -154 -398 -306 -472 -58 -29 -75
-32 -151 -32 -76 0 -93 3 -151 31 -36 18 -85 51 -110 75 -47 44 -110 129 -110
147 0 6 -5 11 -11 11 -5 0 -7 5 -4 10 3 6 1 10 -4 10 -6 0 -10 3 -9 8 1 7 -5
27 -22 67 -66 158 -66 417 1 593 6 15 10 28 10 30 -3 8 53 106 88 152 64 86
154 149 238 169 50 12 150 7 199 -10z m2761 -19 c76 -38 155 -116 207 -204 21
-36 38 -67 38 -70 -1 -3 10 -32 23 -65 12 -33 20 -62 17 -65 -3 -3 -205 -6
-448 -6 l-443 0 25 74 c45 134 127 247 227 314 104 70 240 78 354 22z m267
-902 c-55 -163 -158 -289 -283 -346 -46 -22 -71 -26 -141 -26 -75 0 -93 4
-150 31 -118 57 -227 189 -270 328 -7 22 -16 44 -20 49 -5 5 -6 15 -3 22 4 12
81 14 448 14 l444 0 -25 -72z"/>
</g>
</svg>
