<svg width="14" height="11" viewBox="0 0 14 11" fill="none" xmlns="http://www.w3.org/2000/svg">
<path d="M1.93238 0.130984L12.4619 0.130984C13.2648 0.130984 13.7527 1.01522 13.3157 1.69618L8.05089 9.96939C7.95923 10.1142 7.83242 10.2335 7.68226 10.3162C7.5321 10.3989 7.36348 10.4422 7.19206 10.4422C7.02065 10.4422 6.85203 10.3989 6.70187 10.3162C6.55171 10.2335 6.4249 10.1142 6.33324 9.96939L1.07864 1.69618C0.979486 1.54288 0.923548 1.36566 0.916724 1.18322C0.909901 1.00078 0.952446 0.819876 1.03987 0.659598C1.12729 0.49932 1.25636 0.365609 1.41344 0.272571C1.57053 0.179533 1.74981 0.130617 1.93238 0.130984Z" fill="black"/>
</svg>
