<svg width="16" height="20" viewBox="0 0 16 20" fill="none" xmlns="http://www.w3.org/2000/svg">
<path d="M9 18C9.26522 18 9.51957 18.1054 9.70711 18.2929C9.89464 18.4804 10 18.7348 10 19C10 19.2652 9.89464 19.5196 9.70711 19.7071C9.51957 19.8946 9.26522 20 9 20H7C6.73478 20 6.48043 19.8946 6.29289 19.7071C6.10536 19.5196 6 19.2652 6 19C6 18.7348 6.10536 18.4804 6.29289 18.2929C6.48043 18.1054 6.73478 18 7 18H9ZM8 0C12.41 0 16 3.543 16 7.933C16 10.939 14.478 13.129 13.22 14.427L12.936 14.71L12.666 14.962L12.414 15.182L12.084 15.452L11.756 15.696C11.56 15.834 11.416 16.025 11.29 16.231L11.145 16.482L11.004 16.734C10.764 17.146 10.486 17.5 9.893 17.5H6.107C5.514 17.5 5.236 17.146 4.997 16.734L4.784 16.356C4.639 16.103 4.479 15.862 4.244 15.696L4.012 15.525L3.813 15.37L3.586 15.182L3.334 14.962L3.064 14.71L2.779 14.427C1.522 13.129 0 10.939 0 7.933C0 3.543 3.59 0 8 0ZM8 2C4.677 2 2 4.665 2 7.933C2 10.557 3.533 12.427 4.593 13.404L4.838 13.622L5.058 13.804L5.328 14.012L5.4 14.064C5.715 14.286 5.949 14.595 6.162 14.918L6.535 15.5H9.465L9.838 14.918C10.051 14.595 10.285 14.286 10.6 14.064L10.843 13.882L11.049 13.717L11.282 13.517C12.342 12.576 14 10.662 14 7.933C14 4.665 11.323 2 8 2ZM8.293 4.293C8.47296 4.11365 8.71443 4.00953 8.96838 4.00177C9.22233 3.99402 9.46971 4.08322 9.66028 4.25125C9.85084 4.41928 9.97031 4.65355 9.9944 4.90647C10.0185 5.1594 9.94541 5.41201 9.79 5.613L9.707 5.707L8.414 7L9.7 8.286C10.064 8.65 10.092 9.223 9.784 9.619L9.7 9.714L7.707 11.707C7.52704 11.8863 7.28557 11.9905 7.03162 11.9982C6.77767 12.006 6.53029 11.9168 6.33972 11.7488C6.14916 11.5807 6.02969 11.3464 6.0056 11.0935C5.98151 10.8406 6.05459 10.588 6.21 10.387L6.293 10.293L7.586 9L6.3 7.714C6.12613 7.54012 6.02167 7.30878 6.0062 7.06337C5.99074 6.81796 6.06533 6.57533 6.216 6.381L6.3 6.286L8.293 4.293Z" fill="#4A28FF"/>
</svg>
