<svg width="71" height="70" viewBox="0 0 71 70" fill="none" xmlns="http://www.w3.org/2000/svg">
<path d="M35.4943 28.3967C41.139 19.054 46.0924 14.3836 50.3542 14.3855C56.7471 14.3855 60.7836 21.814 63.1399 31.8952C65.3897 41.5276 64.7395 54.6642 56.7471 54.6642C53.1853 54.6642 48.2828 49.4107 43.4838 42.408C40.4233 37.9756 37.7502 33.2879 35.4943 28.3967ZM35.4943 28.3967C29.2837 19.054 23.8355 14.3836 19.1497 14.3855C12.1153 14.3855 7.67602 21.814 5.08091 31.8952C2.60952 41.5305 3.32879 54.6642 12.1182 54.6642C16.0367 54.6642 21.4312 49.4107 26.7049 42.408C30.2187 37.7337 33.1485 33.0633 35.4943 28.3967Z" stroke="#0A0047" stroke-width="4.31558" stroke-linecap="round" stroke-linejoin="round"/>
</svg>
