<?xml version="1.0" encoding="UTF-8"?>
<svg xmlns:xodm="http://www.corel.com/coreldraw/odm/2003" xmlns="http://www.w3.org/2000/svg" xmlns:xlink="http://www.w3.org/1999/xlink" version="1.1" id="Layer_1" x="0px" y="0px" viewBox="0 0 2501 2500" xml:space="preserve">
<g id="Layer_x0020_1">
	<g id="_1943297263648">
		<rect x="0.5" y="0" fill="none" width="2500" height="2500"></rect>
		<g>
			
				<polygon fill="#E17726" stroke="#E17726" stroke-width="0.7799" stroke-linecap="round" stroke-linejoin="round" stroke-miterlimit="22.9236" points="     2376.9,93.8 1400.2,816.4 1581.8,390.5    "></polygon>
			
				<polygon fill="#E27625" stroke="#E27625" stroke-width="0.7799" stroke-linecap="round" stroke-linejoin="round" stroke-miterlimit="22.9236" points="     124.2,93.8 1092.1,823.2 919.2,390.5    "></polygon>
			
				<polygon fill="#E27625" stroke="#E27625" stroke-width="0.7799" stroke-linecap="round" stroke-linejoin="round" stroke-miterlimit="22.9236" points="     2025.2,1769.3 1765.4,2166.3 2321.8,2319.5 2481.2,1778    "></polygon>
			
				<polygon fill="#E27625" stroke="#E27625" stroke-width="0.7799" stroke-linecap="round" stroke-linejoin="round" stroke-miterlimit="22.9236" points="     20.8,1778 179.2,2319.5 734.7,2166.3 475.8,1769.3    "></polygon>
			
				<polygon fill="#E27625" stroke="#E27625" stroke-width="0.7799" stroke-linecap="round" stroke-linejoin="round" stroke-miterlimit="22.9236" points="     704.7,1098.7 550.2,1331.9 1100.8,1357 1082.4,764.4    "></polygon>
			
				<polygon fill="#E27625" stroke="#E27625" stroke-width="0.7799" stroke-linecap="round" stroke-linejoin="round" stroke-miterlimit="22.9236" points="     1796.3,1098.7 1412.8,757.7 1400.2,1357 1950.8,1331.9    "></polygon>
			
				<polygon fill="#E27625" stroke="#E27625" stroke-width="0.7799" stroke-linecap="round" stroke-linejoin="round" stroke-miterlimit="22.9236" points="     734.7,2166.3 1067.9,2005.4 781,1781.9    "></polygon>
			
				<polygon fill="#E27625" stroke="#E27625" stroke-width="0.7799" stroke-linecap="round" stroke-linejoin="round" stroke-miterlimit="22.9236" points="     1433.1,2005.4 1765.4,2166.3 1720,1781.9    "></polygon>
			
				<polygon fill="#D5BFB2" stroke="#D5BFB2" stroke-width="0.7799" stroke-linecap="round" stroke-linejoin="round" stroke-miterlimit="22.9236" points="     1765.4,2166.3 1433.1,2005.4 1460.1,2221.2 1457.2,2312.8    "></polygon>
			
				<polygon fill="#D5BFB2" stroke="#D5BFB2" stroke-width="0.7799" stroke-linecap="round" stroke-linejoin="round" stroke-miterlimit="22.9236" points="     734.7,2166.3 1043.8,2312.8 1041.9,2221.2 1067.9,2005.4    "></polygon>
			
				<polygon fill="#233447" stroke="#233447" stroke-width="0.7799" stroke-linecap="round" stroke-linejoin="round" stroke-miterlimit="22.9236" points="     1049.6,1639.3 773.3,1558.3 968.4,1468.7    "></polygon>
			
				<polygon fill="#233447" stroke="#233447" stroke-width="0.7799" stroke-linecap="round" stroke-linejoin="round" stroke-miterlimit="22.9236" points="     1451.4,1639.3 1532.6,1468.7 1728.7,1558.3    "></polygon>
			
				<polygon fill="#CC6228" stroke="#CC6228" stroke-width="0.7799" stroke-linecap="round" stroke-linejoin="round" stroke-miterlimit="22.9236" points="     734.7,2166.3 783,1769.3 475.8,1778    "></polygon>
			
				<polygon fill="#CC6228" stroke="#CC6228" stroke-width="0.7799" stroke-linecap="round" stroke-linejoin="round" stroke-miterlimit="22.9236" points="     1718,1769.3 1765.4,2166.3 2025.2,1778    "></polygon>
			
				<polygon fill="#CC6228" stroke="#CC6228" stroke-width="0.7799" stroke-linecap="round" stroke-linejoin="round" stroke-miterlimit="22.9236" points="     1950.8,1331.9 1400.2,1357 1451.4,1639.3 1532.5,1468.7 1728.7,1558.3    "></polygon>
			
				<polygon fill="#CC6228" stroke="#CC6228" stroke-width="0.7799" stroke-linecap="round" stroke-linejoin="round" stroke-miterlimit="22.9236" points="     773.3,1558.3 968.4,1468.7 1049.6,1639.3 1100.8,1357 550.2,1331.9    "></polygon>
			
				<polygon fill="#E27525" stroke="#E27525" stroke-width="0.7799" stroke-linecap="round" stroke-linejoin="round" stroke-miterlimit="22.9236" points="     550.2,1331.9 781,1781.9 773.3,1558.3    "></polygon>
			
				<polygon fill="#E27525" stroke="#E27525" stroke-width="0.7799" stroke-linecap="round" stroke-linejoin="round" stroke-miterlimit="22.9236" points="     1728.7,1558.3 1720,1781.9 1950.8,1331.9    "></polygon>
			
				<polygon fill="#E27525" stroke="#E27525" stroke-width="0.7799" stroke-linecap="round" stroke-linejoin="round" stroke-miterlimit="22.9236" points="     1100.8,1357 1049.6,1639.3 1114.3,1972.6 1128.8,1533.3    "></polygon>
			
				<polygon fill="#E27525" stroke="#E27525" stroke-width="0.7799" stroke-linecap="round" stroke-linejoin="round" stroke-miterlimit="22.9236" points="     1400.2,1357 1373.2,1532.3 1386.7,1972.6 1451.4,1639.3    "></polygon>
			
				<polygon fill="#F5841F" stroke="#F5841F" stroke-width="0.7799" stroke-linecap="round" stroke-linejoin="round" stroke-miterlimit="22.9236" points="     1451.4,1639.3 1386.7,1972.6 1433.1,2005.4 1720,1781.9 1728.7,1558.3    "></polygon>
			
				<polygon fill="#F5841F" stroke="#F5841F" stroke-width="0.7799" stroke-linecap="round" stroke-linejoin="round" stroke-miterlimit="22.9236" points="     773.3,1558.3 781,1781.9 1067.9,2005.4 1114.3,1972.6 1049.6,1639.3    "></polygon>
			
				<polygon fill="#C0AC9D" stroke="#C0AC9D" stroke-width="0.7799" stroke-linecap="round" stroke-linejoin="round" stroke-miterlimit="22.9236" points="     1457.2,2312.8 1460.1,2221.2 1435,2200 1066,2200 1041.9,2221.2 1043.8,2312.8 734.7,2166.3 842.9,2255 1062.1,2406.2      1437.9,2406.2 1658.1,2255 1765.4,2166.3    "></polygon>
			
				<polygon fill="#161616" stroke="#161616" stroke-width="0.7799" stroke-linecap="round" stroke-linejoin="round" stroke-miterlimit="22.9236" points="     1433.1,2005.4 1386.7,1972.6 1114.3,1972.6 1067.9,2005.4 1041.8,2221.2 1066,2200 1435,2200 1460.1,2221.2    "></polygon>
			
				<polygon fill="#763E1A" stroke="#763E1A" stroke-width="0.7799" stroke-linecap="round" stroke-linejoin="round" stroke-miterlimit="22.9236" points="     2418.4,863.6 2500.5,464.7 2376.8,93.8 1433.1,792.4 1796.3,1098.7 2309.2,1248.1 2422.3,1116.1 2373,1080.4 2451.2,1009.1      2391.3,962.9 2469.6,903.1    "></polygon>
			
				<polygon fill="#763E1A" stroke="#763E1A" stroke-width="0.7799" stroke-linecap="round" stroke-linejoin="round" stroke-miterlimit="22.9236" points="     0.5,464.7 83.6,863.6 30.5,903.1 109.7,962.9 49.8,1009.1 128,1080.4 78.7,1116.1 191.8,1248.1 704.7,1098.7 1067.9,792.4      124.2,93.8    "></polygon>
			
				<polygon fill="#F5841F" stroke="#F5841F" stroke-width="0.7799" stroke-linecap="round" stroke-linejoin="round" stroke-miterlimit="22.9236" points="     2309.2,1248.1 1796.3,1098.7 1950.8,1331.9 1720,1781.9 2025.2,1778 2481.2,1778    "></polygon>
			
				<polygon fill="#F5841F" stroke="#F5841F" stroke-width="0.7799" stroke-linecap="round" stroke-linejoin="round" stroke-miterlimit="22.9236" points="     704.7,1098.7 191.8,1248.1 20.8,1778 475.8,1778 781,1781.9 550.2,1331.9    "></polygon>
			
				<polygon fill="#F5841F" stroke="#F5841F" stroke-width="0.7799" stroke-linecap="round" stroke-linejoin="round" stroke-miterlimit="22.9236" points="     1400.2,1357 1433.1,792.3 1581.8,390.5 919.2,390.5 1067.9,792.3 1100.8,1357 1113.3,1534.2 1114.3,1972.6 1386.7,1972.6      1387.7,1534.2    "></polygon>
		</g>
	</g>
</g>
</svg>
