<svg width="18" height="18" viewBox="0 0 18 18" fill="none" xmlns="http://www.w3.org/2000/svg">
<path fill-rule="evenodd" clip-rule="evenodd" d="M5.99928 15L11.2493 9.74773C11.6464 9.3509 11.8696 8.81257 11.8698 8.25115C11.8701 7.68974 11.6472 7.15124 11.2504 6.75411C10.8536 6.35698 10.3152 6.13376 9.75383 6.13355C9.19241 6.13333 8.65391 6.35615 8.25678 6.75298L3.00153 12.0007C2.80455 12.1976 2.64827 12.4313 2.5416 12.6885C2.43494 12.9457 2.37999 13.2215 2.37988 13.4999C2.37978 13.7784 2.43452 14.0542 2.54099 14.3115C2.64746 14.5688 2.80357 14.8026 3.00041 14.9996C3.19724 15.1966 3.43095 15.3529 3.68818 15.4595C3.94542 15.5662 4.22114 15.6212 4.49961 15.6213C4.77808 15.6214 5.05385 15.5666 5.31116 15.4601C5.56848 15.3537 5.8023 15.1968 5.99928 15ZM8.25003 8.24998L9.75003 9.74998L10.5 8.99998C10.5985 8.90149 10.6767 8.78456 10.73 8.65588C10.7833 8.52719 10.8107 8.38927 10.8107 8.24998C10.8107 8.11069 10.7833 7.97277 10.73 7.84409C10.6767 7.7154 10.5985 7.59847 10.5 7.49998C10.4015 7.40149 10.2846 7.32336 10.1559 7.27006C10.0272 7.21676 9.88932 7.18932 9.75003 7.18932C9.61074 7.18932 9.47282 7.21676 9.34414 7.27006C9.21545 7.32336 9.09852 7.40149 9.00003 7.49998L8.25003 8.24998Z" fill="#290ACF"/>
<path d="M5.06909 3.67275C5.11859 3.4875 5.38109 3.4875 5.43059 3.67275L5.69984 4.66875C5.7084 4.70037 5.72509 4.72919 5.74824 4.75235C5.7714 4.77551 5.80023 4.79219 5.83184 4.80075L6.82784 5.06925C7.01309 5.11875 7.01309 5.38125 6.82784 5.43075L5.83109 5.7C5.79948 5.70856 5.77065 5.72525 5.74749 5.74841C5.72434 5.77156 5.70765 5.80039 5.69909 5.832L5.42984 6.82725C5.38034 7.0125 5.11784 7.0125 5.06834 6.82725L4.79984 5.83125C4.79128 5.79964 4.77459 5.77081 4.75144 5.74766C4.72828 5.7245 4.69945 5.70781 4.66784 5.69925L3.67109 5.43075C3.48659 5.38125 3.48659 5.11875 3.67109 5.06925L4.66859 4.8C4.7002 4.79144 4.72903 4.77476 4.75218 4.7516C4.77534 4.72844 4.79203 4.69962 4.80059 4.668L5.06909 3.67275ZM12.5691 2.92275C12.6186 2.7375 12.8811 2.7375 12.9306 2.92275L13.1991 3.91875C13.2076 3.95037 13.2243 3.97919 13.2475 4.00235C13.2707 4.02551 13.2995 4.04219 13.3311 4.05075L14.3271 4.31925C14.5123 4.36875 14.5123 4.63125 14.3271 4.68075L13.3311 4.94925C13.2995 4.95781 13.2707 4.9745 13.2475 4.99766C13.2243 5.02081 13.2076 5.04964 13.1991 5.08125L12.9306 6.07725C12.8811 6.2625 12.6186 6.2625 12.5691 6.07725L12.2998 5.08125C12.2912 5.04955 12.2744 5.02066 12.2511 4.9975C12.2278 4.97433 12.1988 4.95769 12.1671 4.94925L11.1711 4.68075C10.9866 4.63125 10.9866 4.36875 11.1711 4.31925L12.1671 4.05075C12.1988 4.04231 12.2278 4.02567 12.2511 4.0025C12.2744 3.97934 12.2912 3.95046 12.2998 3.91875L12.5691 2.92275ZM13.3191 9.67275C13.3686 9.4875 13.6311 9.4875 13.6806 9.67275L13.9491 10.6688C13.9576 10.7004 13.9743 10.7292 13.9975 10.7523C14.0207 10.7755 14.0495 10.7922 14.0811 10.8008L15.0771 11.0693C15.2623 11.1188 15.2623 11.3813 15.0771 11.4308L14.0811 11.6993C14.0495 11.7078 14.0207 11.7245 13.9975 11.7477C13.9743 11.7708 13.9576 11.7996 13.9491 11.8313L13.6806 12.8273C13.6311 13.0125 13.3686 13.0125 13.3191 12.8273L13.0506 11.8313C13.042 11.7995 13.0252 11.7707 13.0019 11.7475C12.9786 11.7243 12.9496 11.7077 12.9178 11.6993L11.9218 11.4308C11.7373 11.3813 11.7373 11.1188 11.9218 11.0693L12.9178 10.8008C12.9496 10.7923 12.9786 10.7757 13.0019 10.7525C13.0252 10.7293 13.042 10.7005 13.0506 10.6688L13.3191 9.67275Z" fill="#290ACF"/>
</svg>
