<svg width="165" height="40" viewBox="0 0 165 40" fill="none" xmlns="http://www.w3.org/2000/svg">
<path d="M26.8398 30V14.7385H30.3475L30.7168 17.6C31.2706 16.6154 32.0193 15.8359 32.9629 15.2615C33.927 14.6667 35.0552 14.3692 36.3475 14.3692V18.5231H35.2398C34.3783 18.5231 33.6091 18.6564 32.9322 18.9231C32.2552 19.1897 31.7219 19.6513 31.3322 20.3077C30.9629 20.9641 30.7783 21.8769 30.7783 23.0462V30H26.8398ZM48.0855 30.3692C46.9368 30.3692 45.9317 30.1538 45.0701 29.7231C44.2086 29.2923 43.5112 28.6872 42.9778 27.9077L42.5471 30H39.0394V7.84615H42.9778V16.9231C43.4701 16.2462 44.1163 15.6513 44.9163 15.1385C45.7368 14.6256 46.7932 14.3692 48.0855 14.3692C49.5214 14.3692 50.8035 14.7179 51.9317 15.4154C53.0599 16.1128 53.9522 17.0667 54.6086 18.2769C55.265 19.4872 55.5932 20.8615 55.5932 22.4C55.5932 23.9385 55.265 25.3128 54.6086 26.5231C53.9522 27.7128 53.0599 28.6564 51.9317 29.3538C50.8035 30.0308 49.5214 30.3692 48.0855 30.3692ZM47.2547 26.9231C48.506 26.9231 49.5419 26.5026 50.3624 25.6615C51.183 24.8205 51.5932 23.7333 51.5932 22.4C51.5932 21.0667 51.183 19.9692 50.3624 19.1077C49.5419 18.2462 48.506 17.8154 47.2547 17.8154C45.983 17.8154 44.9368 18.2462 44.1163 19.1077C43.3163 19.9487 42.9163 21.0359 42.9163 22.3692C42.9163 23.7026 43.3163 24.8 44.1163 25.6615C44.9368 26.5026 45.983 26.9231 47.2547 26.9231ZM61.2346 12.3692C60.5166 12.3692 59.9217 12.1538 59.4499 11.7231C58.9987 11.2923 58.773 10.7487 58.773 10.0923C58.773 9.43589 58.9987 8.90256 59.4499 8.4923C59.9217 8.06154 60.5166 7.84615 61.2346 7.84615C61.9525 7.84615 62.5371 8.06154 62.9884 8.4923C63.4602 8.90256 63.6961 9.43589 63.6961 10.0923C63.6961 10.7487 63.4602 11.2923 62.9884 11.7231C62.5371 12.1538 61.9525 12.3692 61.2346 12.3692ZM59.2653 30V14.7385H63.2038V30H59.2653ZM73.0377 30.3692C71.13 30.3692 69.6531 29.7744 68.6069 28.5846C67.5813 27.3949 67.0685 25.6513 67.0685 23.3538V14.7385H70.9761V22.9846C70.9761 24.2974 71.2428 25.3026 71.7761 26C72.3095 26.6974 73.1505 27.0462 74.2992 27.0462C75.3864 27.0462 76.2787 26.6564 76.9761 25.8769C77.6941 25.0974 78.0531 24.0103 78.0531 22.6154V14.7385H81.9915V30H78.5146L78.2069 27.4154C77.7351 28.3179 77.0479 29.0359 76.1454 29.5692C75.2633 30.1026 74.2274 30.3692 73.0377 30.3692ZM92.3423 30.3692C90.9884 30.3692 89.7987 30.1538 88.773 29.7231C87.7474 29.2718 86.9269 28.6564 86.3115 27.8769C85.6961 27.0974 85.3269 26.1949 85.2038 25.1692H89.173C89.2961 25.7641 89.6243 26.2769 90.1576 26.7077C90.7115 27.1179 91.4192 27.3231 92.2807 27.3231C93.1423 27.3231 93.7679 27.1487 94.1576 26.8C94.5679 26.4513 94.773 26.0513 94.773 25.6C94.773 24.9436 94.4858 24.5026 93.9115 24.2769C93.3371 24.0308 92.5371 23.7949 91.5115 23.5692C90.8551 23.4256 90.1884 23.2513 89.5115 23.0462C88.8346 22.841 88.2089 22.5846 87.6346 22.2769C87.0807 21.9487 86.6294 21.5385 86.2807 21.0462C85.932 20.5333 85.7576 19.9077 85.7576 19.1692C85.7576 17.8154 86.291 16.6769 87.3576 15.7538C88.4448 14.8308 89.9628 14.3692 91.9115 14.3692C93.7166 14.3692 95.1525 14.7897 96.2192 15.6308C97.3064 16.4718 97.9525 17.6308 98.1576 19.1077H94.4346C94.2089 17.9795 93.3576 17.4154 91.8807 17.4154C91.1423 17.4154 90.5679 17.559 90.1576 17.8462C89.7679 18.1333 89.573 18.4923 89.573 18.9231C89.573 19.3744 89.8705 19.7333 90.4653 20C91.0602 20.2667 91.8499 20.5128 92.8346 20.7385C93.9012 20.9846 94.8756 21.2615 95.7576 21.5692C96.6602 21.8564 97.3782 22.2974 97.9115 22.8923C98.4448 23.4667 98.7115 24.2974 98.7115 25.3846C98.732 26.3282 98.4858 27.1795 97.973 27.9385C97.4602 28.6974 96.7217 29.2923 95.7576 29.7231C94.7935 30.1538 93.6551 30.3692 92.3423 30.3692ZM109.247 30.3692C107.729 30.3692 106.395 30.0205 105.247 29.3231C104.118 28.6256 103.236 27.6718 102.6 26.4615C101.985 25.2513 101.677 23.8769 101.677 22.3385C101.677 20.8 101.995 19.4359 102.631 18.2462C103.267 17.0359 104.149 16.0923 105.277 15.4154C106.406 14.7179 107.739 14.3692 109.277 14.3692C110.529 14.3692 111.636 14.6256 112.6 15.1385C113.565 15.6513 114.313 16.3692 114.847 17.2923V7.84615H117.431V30H115.093L114.847 27.4769C114.354 28.2154 113.647 28.8821 112.724 29.4769C111.8 30.0718 110.641 30.3692 109.247 30.3692ZM109.524 28.1231C110.549 28.1231 111.452 27.8872 112.231 27.4154C113.031 26.9231 113.647 26.2462 114.077 25.3846C114.529 24.5231 114.754 23.5179 114.754 22.3692C114.754 21.2205 114.529 20.2154 114.077 19.3538C113.647 18.4923 113.031 17.8256 112.231 17.3538C111.452 16.8615 110.549 16.6154 109.524 16.6154C108.518 16.6154 107.616 16.8615 106.816 17.3538C106.036 17.8256 105.421 18.4923 104.97 19.3538C104.539 20.2154 104.324 21.2205 104.324 22.3692C104.324 23.5179 104.539 24.5231 104.97 25.3846C105.421 26.2462 106.036 26.9231 106.816 27.4154C107.616 27.8872 108.518 28.1231 109.524 28.1231ZM126.721 30.3692C125.45 30.3692 124.393 30.1538 123.552 29.7231C122.711 29.2923 122.085 28.7179 121.675 28C121.265 27.2821 121.06 26.5026 121.06 25.6615C121.06 24.1026 121.655 22.9026 122.844 22.0615C124.034 21.2205 125.655 20.8 127.706 20.8H131.829V20.6154C131.829 19.2821 131.48 18.2769 130.783 17.6C130.085 16.9026 129.152 16.5538 127.983 16.5538C126.978 16.5538 126.106 16.8103 125.367 17.3231C124.65 17.8154 124.198 18.5436 124.014 19.5077H121.367C121.47 18.4 121.839 17.4667 122.475 16.7077C123.132 15.9487 123.942 15.3744 124.906 14.9846C125.87 14.5744 126.896 14.3692 127.983 14.3692C130.116 14.3692 131.716 14.9436 132.783 16.0923C133.87 17.2205 134.414 18.7282 134.414 20.6154V30H132.106L131.952 27.2615C131.521 28.1231 130.885 28.8615 130.044 29.4769C129.224 30.0718 128.116 30.3692 126.721 30.3692ZM127.121 28.1846C128.106 28.1846 128.947 27.9282 129.644 27.4154C130.362 26.9026 130.906 26.2359 131.275 25.4154C131.644 24.5949 131.829 23.7333 131.829 22.8308V22.8H127.921C126.403 22.8 125.326 23.0667 124.691 23.6C124.075 24.1128 123.767 24.759 123.767 25.5385C123.767 26.3385 124.055 26.9846 124.629 27.4769C125.224 27.9487 126.055 28.1846 127.121 28.1846ZM143.901 30C142.506 30 141.409 29.6615 140.609 28.9846C139.809 28.3077 139.409 27.0872 139.409 25.3231V16.9231H136.763V14.7385H139.409L139.747 11.0769H141.993V14.7385H146.486V16.9231H141.993V25.3231C141.993 26.2872 142.188 26.9436 142.578 27.2923C142.968 27.6205 143.655 27.7846 144.64 27.7846H146.24V30H143.901ZM154.846 30.3692C153.575 30.3692 152.518 30.1538 151.677 29.7231C150.836 29.2923 150.21 28.7179 149.8 28C149.39 27.2821 149.185 26.5026 149.185 25.6615C149.185 24.1026 149.78 22.9026 150.969 22.0615C152.159 21.2205 153.78 20.8 155.831 20.8H159.954V20.6154C159.954 19.2821 159.605 18.2769 158.908 17.6C158.21 16.9026 157.277 16.5538 156.108 16.5538C155.103 16.5538 154.231 16.8103 153.493 17.3231C152.775 17.8154 152.323 18.5436 152.139 19.5077H149.493C149.595 18.4 149.964 17.4667 150.6 16.7077C151.257 15.9487 152.067 15.3744 153.031 14.9846C153.995 14.5744 155.021 14.3692 156.108 14.3692C158.241 14.3692 159.841 14.9436 160.908 16.0923C161.995 17.2205 162.539 18.7282 162.539 20.6154V30H160.231L160.077 27.2615C159.646 28.1231 159.01 28.8615 158.169 29.4769C157.349 30.0718 156.241 30.3692 154.846 30.3692ZM155.246 28.1846C156.231 28.1846 157.072 27.9282 157.769 27.4154C158.487 26.9026 159.031 26.2359 159.4 25.4154C159.769 24.5949 159.954 23.7333 159.954 22.8308V22.8H156.046C154.528 22.8 153.451 23.0667 152.816 23.6C152.2 24.1128 151.893 24.759 151.893 25.5385C151.893 26.3385 152.18 26.9846 152.754 27.4769C153.349 27.9487 154.18 28.1846 155.246 28.1846Z" fill="black"/>
<path d="M5.79885 30.5263H2.45336H0L17.8426 3.98535H22.5263V30.5263H18.3158V20.0437H12.2668L5.79885 30.5263Z" fill="black"/>
<path d="M18.5261 16.0302H14.0508L18.0654 9.48011L18.2884 9.11621L18.5261 16.0302Z" fill="#EFEFEF"/>
</svg>
