<svg width="24" height="16" viewBox="0 0 24 16" fill="none" xmlns="http://www.w3.org/2000/svg">
<path d="M8.948 4.735V3.305C9.08912 3.29472 9.23052 3.28871 9.372 3.287C13.294 3.163 15.865 6.661 15.865 6.661C15.865 6.661 13.091 10.512 10.115 10.512C9.72162 10.5123 9.33071 10.4498 8.957 10.327V5.981C10.485 6.166 10.794 6.838 11.704 8.366L13.744 6.652C13.744 6.652 12.252 4.7 9.744 4.7C9.47818 4.69402 9.21227 4.70571 8.948 4.735ZM8.948 0V2.138L9.372 2.111C14.822 1.926 18.382 6.581 18.382 6.581C18.382 6.581 14.302 11.545 10.052 11.545C9.68492 11.5436 9.31861 11.5112 8.957 11.448V12.773C9.257 12.808 9.567 12.835 9.867 12.835C13.824 12.835 16.687 10.812 19.46 8.427C19.919 8.798 21.8 9.69 22.19 10.079C19.557 12.287 13.418 14.063 9.937 14.063C9.602 14.063 9.284 14.045 8.966 14.01V15.874H24V0H8.948ZM8.948 10.326V11.457C5.291 10.803 4.275 6.997 4.275 6.997C4.275 6.997 6.033 5.053 8.948 4.735V5.972H8.94C7.412 5.786 6.21 7.217 6.21 7.217C6.21 7.217 6.89 9.629 8.949 10.327M2.456 6.837C2.456 6.837 4.62 3.64 8.956 3.304V2.138C4.153 2.527 0 6.59 0 6.59C0 6.59 2.35 13.392 8.948 14.01V12.773C4.108 12.173 2.456 6.837 2.456 6.837Z" fill="#D3D3D3"/>
</svg>
