<svg width="28" height="27" viewBox="0 0 28 27" fill="none" xmlns="http://www.w3.org/2000/svg">
<path d="M14 0C6.272 0 0 6.048 0 13.5C0 20.952 6.272 27 14 27C21.728 27 28 20.952 28 13.5C28 6.048 21.728 0 14 0ZM20.496 9.18C20.286 11.313 19.376 16.497 18.914 18.8865C18.718 19.899 18.326 20.2365 17.962 20.277C17.15 20.3445 16.534 19.764 15.75 19.2645C14.518 18.4815 13.818 17.9955 12.628 17.2395C11.242 16.362 12.138 15.876 12.936 15.093C13.146 14.8905 16.73 11.745 16.8 11.4615C16.8097 11.4186 16.8084 11.374 16.7962 11.3316C16.784 11.2893 16.7613 11.2505 16.73 11.2185C16.646 11.151 16.534 11.178 16.436 11.1915C16.31 11.2185 14.35 12.474 10.528 14.958C9.968 15.3225 9.464 15.5115 9.016 15.498C8.512 15.4845 7.56 15.228 6.846 14.9985C5.964 14.7285 5.278 14.58 5.334 14.1075C5.362 13.8645 5.712 13.6215 6.37 13.365C10.458 11.6505 13.174 10.5165 14.532 9.9765C18.424 8.4105 19.222 8.1405 19.754 8.1405C19.866 8.1405 20.132 8.1675 20.3 8.3025C20.44 8.4105 20.482 8.559 20.496 8.667C20.482 8.748 20.51 8.991 20.496 9.18Z" fill="#0A0047"/>
</svg>
