<svg xmlns="http://www.w3.org/2000/svg" width="49" height="43" fill="none"><path fill="#252E47" d="M.535 42.417C.178 42.03 0 41.517 0 40.881v-4.51h.704v4.523c0 .436.111.791.333 1.066.222.274.515.411.88.411h.81c.251 0 .508-.082.769-.248.26-.165.49-.39.691-.673.2-.283.335-.582.404-.896v-4.183h.692v6.524h-.679v-1.177c-.217.375-.5.682-.848.922-.347.24-.682.36-1.004.36h-.835c-.565 0-1.026-.195-1.382-.583ZM8.074 36.372h.678v1.111c.217-.375.493-.671.828-.889.335-.218.676-.327 1.024-.327h.874c.565 0 1.024.199 1.376.595.352.397.528.922.528 1.575v4.458h-.69v-4.47c0-.454-.114-.822-.34-1.105a1.082 1.082 0 0 0-.887-.425h-.848c-.391 0-.76.161-1.108.483-.348.323-.592.741-.73 1.255v4.262h-.705v-6.523ZM16.258 35.104a.553.553 0 0 1-.163-.419c0-.174.054-.315.163-.424a.572.572 0 0 1 .424-.164c.174 0 .313.055.418.164.104.109.156.25.156.424a.57.57 0 0 1-.157.412.55.55 0 0 1-.417.164.585.585 0 0 1-.424-.157Zm.072 1.268h.691v6.523h-.691v-6.523ZM20.404 42.366c-.413-.423-.62-.978-.62-1.667v-2.013c0-.724.207-1.308.62-1.752.413-.444.954-.667 1.624-.667h1.07c.634 0 1.145.175 1.532.523.387.349.58.806.58 1.373h-.678c0-.383-.133-.69-.398-.922-.265-.23-.61-.346-1.037-.346h-1.07c-.46 0-.832.163-1.114.49-.283.327-.424.76-.424 1.3V40.7c0 .506.14.91.424 1.216.282.305.658.457 1.128.457h1.07c.434 0 .786-.152 1.056-.457.27-.305.404-.706.404-1.203h.678c0 .689-.195 1.242-.587 1.66-.39.419-.908.628-1.552.628h-1.07c-.677 0-1.223-.211-1.636-.634ZM27.6 36.372h.678v1.059c.192-.331.466-.595.822-.79a2.345 2.345 0 0 1 1.148-.295h.482v.628h-.495c-.565 0-1.028.183-1.39.549-.36.365-.54.84-.54 1.424v3.949H27.6v-6.524ZM32.959 42.34c-.426-.44-.64-1.018-.64-1.732V38.66c0-.715.216-1.292.646-1.732.43-.44.998-.66 1.703-.66h1.03c.704 0 1.272.22 1.702.66.43.44.646 1.017.646 1.732v1.948c0 .714-.218 1.292-.652 1.732-.435.44-1.01.66-1.722.66h-1.03c-.696 0-1.257-.22-1.683-.66Zm2.713.032c.504 0 .91-.16 1.22-.483.308-.322.462-.75.462-1.281V38.66c0-.532-.152-.959-.456-1.282-.305-.322-.704-.483-1.2-.483h-1.03c-.496 0-.894.161-1.194.483-.3.323-.45.75-.45 1.282v1.948c0 .531.148.959.444 1.28.295.323.686.485 1.173.485h1.03ZM48.18 36.372l-1.435 5.883c-.061.227-.144.39-.248.49a.578.578 0 0 1-.418.15h-.326l-1.709-5.255-1.76 5.256h-.326a.578.578 0 0 1-.418-.15c-.104-.1-.187-.264-.248-.49l-1.447-5.884h.743l1.33 5.74 1.84-5.557h.273c.183 0 .314.118.392.353l1.695 5.216 1.318-5.752h.743ZM20.141 22.445l.32-9.794-7.638-2.367s2.876-1.832 7.76-1.318l.2-6.147L8.351 0l4.407 6.776-2.332-.941.214.587s-.036 3.664-.134 8.496l3.376 4.503-3.435-1.821c-.02.827-.04 1.674-.064 2.529-.192 7.142 11.492 7.786 11.492 7.786s-1.862-1.416-1.734-5.47Z"/><path fill="#322CA2" d="m34.457 6.166-10.855-2.67s1.546 1.898 1.418 4.085l-1.418 22.136s.326-.9 3.729-1.48c5.2-.643 5.842-5.148 5.842-5.148l.71-9.351-4.22 2.53 4.399-4.894.395-5.208Z"/><path fill="#889AC4" d="M22.332 12.28a1.089 1.089 0 0 0-.499-2.12 1.089 1.089 0 0 0 .5 2.12Z"/></svg>